<svg id="Layer_1" enable-background="new 0 0 512 512" height="512" viewBox="0 0 512 512" width="512" xmlns="http://www.w3.org/2000/svg"><g><path d="m135 0c-74.439 0-135 60.561-135 135s60.561 135 135 135 135-60.561 135-135-60.561-135-135-135zm0 240c-57.897 0-105-47.103-105-105s47.103-105 105-105 105 47.103 105 105-47.103 105-105 105z"/><path d="m377 242c-74.439 0-135 60.561-135 135s60.561 135 135 135 135-60.561 135-135-60.561-135-135-135zm0 240c-57.897 0-105-47.103-105-105s47.103-105 105-105 105 47.103 105 105-47.103 105-105 105z"/><path d="m163.577 131.589c-7.429-5.412-28.86-12.764-28.976-12.802-13.642-5.061-13.628-7.842-13.6-11.039.071-7.957 7.906-9.072 12.534-9.09 6.042.027 14.55 2.791 14.55 8.851 0 8.284 6.716 15 15 15s15-6.716 15-15c0-17.238-11.686-31.211-28.897-36.533-.301-8.019-6.879-14.432-14.971-14.432-7.986 0-14.496 6.247-14.955 14.118-16.833 4.998-28.099 18.94-28.258 36.817-.249 27.655 37.859 41.054 38.393 41.237 17.081 5.858 19.647 8.187 19.604 13.15-.071 7.958-7.93 9.134-12.534 9.09-6.042-.027-14.55-2.791-14.55-8.851 0-8.284-6.716-15-15-15s-15 6.716-15 15c0 17.238 11.687 31.212 28.898 36.533.301 8.019 6.879 14.432 14.971 14.432 7.987 0 14.497-6.247 14.955-14.118 16.833-4.998 28.098-18.94 28.257-36.817.112-12.552-5.22-23.115-15.421-30.546z"/><path d="m395.668 424.222c-2.833.517-5.729.778-8.609.778-21.23 0-39.272-13.859-45.587-33h30.528c8.284 0 15-6.716 15-15s-6.716-15-15-15h-30.528c6.315-19.141 24.357-33 45.587-33 2.766 0 5.551.242 8.278.719 8.165 1.423 15.933-4.031 17.36-12.191s-4.03-15.933-12.19-17.36c-4.43-.775-8.954-1.168-13.448-1.168-37.879 0-69.523 27.145-76.538 63h-6.521c-8.284 0-15 6.716-15 15s6.716 15 15 15h6.521c7.015 35.855 38.659 63 76.538 63 4.68 0 9.387-.425 13.99-1.265 8.149-1.486 13.552-9.297 12.066-17.447-1.486-8.149-9.297-13.551-17.447-12.066z"/><path d="m153.827 399.246c-6.006-5.703-15.501-5.457-21.206.552-5.703 6.008-5.456 15.502.552 21.206l7.239 6.872h-38.412c-39.701 0-72-32.299-72-72v-20c0-8.284-6.716-15-15-15s-15 6.716-15 15v20c0 56.243 45.757 102 102 102h38.411l-7.238 6.871c-6.008 5.704-6.255 15.198-.552 21.206 2.949 3.107 6.911 4.673 10.881 4.673 3.708 0 7.424-1.367 10.325-4.121l34.5-32.75c2.983-2.832 4.673-6.765 4.673-10.879s-1.689-8.047-4.673-10.879z"/><path d="m410 54.125h-38.411l7.238-6.871c6.008-5.704 6.255-15.198.552-21.206-5.704-6.009-15.199-6.255-21.206-.552l-34.5 32.75c-2.984 2.833-4.673 6.766-4.673 10.879s1.689 8.047 4.673 10.879l34.5 32.75c2.902 2.754 6.616 4.121 10.325 4.121 3.97 0 7.932-1.566 10.881-4.673 5.703-6.008 5.456-15.502-.552-21.206l-7.238-6.871h38.411c39.701 0 72 32.299 72 72v20c0 8.284 6.716 15 15 15s15-6.716 15-15v-20c0-56.243-45.757-102-102-102z"/></g></svg>