<svg id="Capa_1" enable-background="new 0 0 512 512" height="512" viewBox="0 0 512 512" width="512" xmlns="http://www.w3.org/2000/svg"><g><path d="m341 431h-55v-15h183.5c6.893 0 12.5-5.607 12.5-12.5v-117.5c0-4.142-3.357-7.5-7.5-7.5s-7.5 3.358-7.5 7.5v115h-203.5v-51c0-4.142-3.357-7.5-7.5-7.5s-7.5 3.358-7.5 7.5v51h-203.5v-325h22c4.143 0 7.5-3.358 7.5-7.5s-3.357-7.5-7.5-7.5h-24.5c-6.893 0-12.5 5.607-12.5 12.5v17.5h-17.5c-6.893 0-12.5 5.607-12.5 12.5v330c0 6.893 5.607 12.5 12.5 12.5h216.024c2.283 3.029 5.899 5 9.976 5h35c4.077 0 7.693-1.971 9.976-5h57.524c4.143 0 7.5-3.358 7.5-7.5s-3.357-7.5-7.5-7.5zm-326-325h15v297.5c0 6.893 5.607 12.5 12.5 12.5h183.5v15h-211zm226 330v-20h15 15v20z"/><path d="m499.5 91h-17.5v-17.5c0-6.893-5.607-12.5-12.5-12.5h-183.5c-12.254 0-23.153 5.909-30 15.026-6.847-9.117-17.746-15.026-30-15.026h-124c-4.143 0-7.5 3.358-7.5 7.5s3.357 7.5 7.5 7.5h124c12.406 0 22.5 10.093 22.5 22.5v216.5c0 4.142 3.357 7.5 7.5 7.5s7.5-3.358 7.5-7.5v-216.5c0-12.407 10.094-22.5 22.5-22.5h181v174.393c0 4.142 3.357 7.5 7.5 7.5s7.5-3.358 7.5-7.5v-144.393h15v325h-121c-4.143 0-7.5 3.358-7.5 7.5s3.357 7.5 7.5 7.5h123.5c6.893 0 12.5-5.607 12.5-12.5v-330c0-6.893-5.607-12.5-12.5-12.5z"/><path d="m69.908 165.591c2.837.995 7.458.336 9.679-4.339l3.355-8.808h23.159l3.316 8.787c1.462 3.876 5.79 5.833 9.665 4.369 3.875-1.463 5.831-5.79 4.368-9.665l-20.668-54.766c-.025-.069-.053-.138-.081-.207-1.357-3.296-4.536-5.425-8.1-5.425-.003 0-.005 0-.008 0-3.567.003-6.746 2.139-8.099 5.44-.023.058-.046.115-.068.173l-20.857 54.763c-1.474 3.871.469 8.204 4.339 9.678zm24.666-43.69 5.866 15.542h-11.785z"/><path d="m287.702 304.242c-.111 2.85 2.09 8.302 7.638 8.375.462-.002 11.353-.043 15.706-.12 16.624-.291 28.69-14.729 28.69-34.332 0-20.606-11.762-34.452-29.268-34.452h-15.267c-1.991 0-3.901.792-5.309 2.202-1.406 1.41-2.195 3.321-2.191 5.313v.04.002 52.972zm22.767-45.528c13.238 0 14.268 14.889 14.268 19.452 0 9.502-4.314 19.165-13.952 19.333-1.853.033-5.013.059-7.998.079-.021-6.322-.045-15.024-.045-19.472 0-3.726-.015-12.808-.025-19.392z"/><path d="m93.688 242.893h-16.134c-4.143 0-7.5 3.358-7.5 7.5v25.577.042 29.927c0 1.995.795 3.908 2.209 5.315 1.405 1.4 3.308 2.185 5.291 2.185h.033c.002 0 14.832-.066 18.92-.066 12.38 0 22.451-10.072 22.451-22.451 0-6.879-3.113-13.043-8.001-17.165 1.898-3.086 3.013-6.702 3.013-10.583 0-11.183-9.098-20.281-20.282-20.281zm0 15c2.912 0 5.281 2.369 5.281 5.281s-2.369 5.281-5.281 5.281c-1.064-.002-5.465.019-8.635.015v-10.577zm2.819 40.48c-2.12 0-7.117.018-11.453.035v-14.927c-.032-.01 10.557-.012 11.453-.01 4.108 0 7.451 3.343 7.451 7.451s-3.343 7.451-7.451 7.451z"/><path d="m318.857 110.536c4.063 0 7.981 1.196 11.33 3.458 3.433 2.319 8.095 1.416 10.413-2.016 2.318-3.433 1.416-8.095-2.017-10.414-5.837-3.944-12.659-6.028-19.727-6.028-19.449 0-35.272 15.823-35.272 35.273s15.823 35.273 35.272 35.273c8.629-.185 17.175-3.256 23.241-10.517 2.663-3.172 2.251-7.903-.921-10.566-3.174-2.663-7.904-2.25-10.566.921-2.327 2.736-6.142 5.032-11.754 5.163-11.179 0-20.272-9.094-20.272-20.273s9.095-20.274 20.273-20.274z"/><path d="m151.5 138.309h70c4.143 0 7.5-3.358 7.5-7.5s-3.357-7.5-7.5-7.5h-70c-4.143 0-7.5 3.358-7.5 7.5s3.357 7.5 7.5 7.5z"/><path d="m151.5 168.309h30c4.143 0 7.5-3.358 7.5-7.5s-3.357-7.5-7.5-7.5h-30c-4.143 0-7.5 3.358-7.5 7.5s3.357 7.5 7.5 7.5z"/><path d="m151.5 198.309h50c4.143 0 7.5-3.358 7.5-7.5s-3.357-7.5-7.5-7.5h-50c-4.143 0-7.5 3.358-7.5 7.5s3.357 7.5 7.5 7.5z"/><path d="m151.5 228.309h70c4.143 0 7.5-3.358 7.5-7.5s-3.357-7.5-7.5-7.5h-70c-4.143 0-7.5 3.358-7.5 7.5s3.357 7.5 7.5 7.5z"/><path d="m151.5 283h70c4.143 0 7.5-3.358 7.5-7.5s-3.357-7.5-7.5-7.5h-70c-4.143 0-7.5 3.358-7.5 7.5s3.357 7.5 7.5 7.5z"/><path d="m151.5 313h50c4.143 0 7.5-3.358 7.5-7.5s-3.357-7.5-7.5-7.5h-50c-4.143 0-7.5 3.358-7.5 7.5s3.357 7.5 7.5 7.5z"/><path d="m151.5 343h70c4.143 0 7.5-3.358 7.5-7.5s-3.357-7.5-7.5-7.5h-70c-4.143 0-7.5 3.358-7.5 7.5s3.357 7.5 7.5 7.5z"/><path d="m151.5 373h30c4.143 0 7.5-3.358 7.5-7.5s-3.357-7.5-7.5-7.5h-30c-4.143 0-7.5 3.358-7.5 7.5s3.357 7.5 7.5 7.5z"/><path d="m371.5 138.309h30c4.143 0 7.5-3.358 7.5-7.5s-3.357-7.5-7.5-7.5h-30c-4.143 0-7.5 3.358-7.5 7.5s3.357 7.5 7.5 7.5z"/><path d="m371.5 168.309h70c4.143 0 7.5-3.358 7.5-7.5s-3.357-7.5-7.5-7.5h-70c-4.143 0-7.5 3.358-7.5 7.5s3.357 7.5 7.5 7.5z"/><path d="m371.5 198.309h60c4.143 0 7.5-3.358 7.5-7.5s-3.357-7.5-7.5-7.5h-60c-4.143 0-7.5 3.358-7.5 7.5s3.357 7.5 7.5 7.5z"/><path d="m371.5 228.309h40c4.143 0 7.5-3.358 7.5-7.5s-3.357-7.5-7.5-7.5h-40c-4.143 0-7.5 3.358-7.5 7.5s3.357 7.5 7.5 7.5z"/><path d="m371.5 283h50c4.143 0 7.5-3.358 7.5-7.5s-3.357-7.5-7.5-7.5h-50c-4.143 0-7.5 3.358-7.5 7.5s3.357 7.5 7.5 7.5z"/><path d="m371.5 313h70c4.143 0 7.5-3.358 7.5-7.5s-3.357-7.5-7.5-7.5h-70c-4.143 0-7.5 3.358-7.5 7.5s3.357 7.5 7.5 7.5z"/><path d="m371.5 343h30c4.143 0 7.5-3.358 7.5-7.5s-3.357-7.5-7.5-7.5h-30c-4.143 0-7.5 3.358-7.5 7.5s3.357 7.5 7.5 7.5z"/><path d="m371.5 373h60c4.143 0 7.5-3.358 7.5-7.5s-3.357-7.5-7.5-7.5h-60c-4.143 0-7.5 3.358-7.5 7.5s3.357 7.5 7.5 7.5z"/></g></svg>