<svg id="Capa_1" enable-background="new 0 0 512 512" height="512" viewBox="0 0 512 512" width="512" xmlns="http://www.w3.org/2000/svg"><g><path d="m290.701 299.889h120.906c4.651 0 8.422-3.771 8.422-8.422s-3.771-8.422-8.422-8.422h-120.906c-4.651 0-8.422 3.771-8.422 8.422s3.77 8.422 8.422 8.422z"/><path d="m402.062 320.597h-101.816c-8.47 0-15.361 6.891-15.361 15.361v76.361c0 8.47 6.891 15.361 15.361 15.361h101.815c8.47 0 15.361-6.891 15.361-15.361v-76.361c0-8.471-6.89-15.361-15.36-15.361zm.36 91.722c0 .199-.162.361-.361.361h-101.815c-.199 0-.361-.162-.361-.361v-76.361c0-.199.162-.361.361-.361h101.815c.199 0 .361.162.361.361z"/><path d="m393.739 39.594c4.142 0 7.5-3.358 7.5-7.5v-22.435c0-4.142-3.358-7.5-7.5-7.5s-7.5 3.358-7.5 7.5v22.436c0 4.141 3.358 7.499 7.5 7.499z"/><path d="m335.786 52.334c2.929 2.929 7.678 2.929 10.606 0 2.929-2.929 2.929-7.678 0-10.606l-15.864-15.864c-2.929-2.929-7.678-2.929-10.606 0-2.929 2.929-2.929 7.678 0 10.606z"/><path d="m451.693 52.334 15.865-15.864c2.929-2.929 2.929-7.677 0-10.606-2.928-2.929-7.677-2.929-10.606 0l-15.865 15.864c-2.929 2.929-2.929 7.677 0 10.606 2.927 2.929 7.677 2.929 10.606 0z"/><path d="m504.5 83.886h-22.436c-4.142 0-7.5 3.358-7.5 7.5s3.358 7.5 7.5 7.5h22.436c4.142 0 7.5-3.358 7.5-7.5s-3.358-7.5-7.5-7.5z"/><path d="m282.979 98.886h22.436c4.142 0 7.5-3.358 7.5-7.5s-3.358-7.5-7.5-7.5h-22.436c-4.142 0-7.5 3.358-7.5 7.5s3.358 7.5 7.5 7.5z"/><path d="m82.82 185.293h120.906c4.651 0 8.422-3.771 8.422-8.422 0-4.651-3.771-8.422-8.422-8.422h-120.906c-4.651 0-8.422 3.771-8.422 8.422 0 4.651 3.771 8.422 8.422 8.422z"/><path d="m82.82 223.492h120.906c4.651 0 8.422-3.771 8.422-8.422s-3.771-8.422-8.422-8.422h-120.906c-4.651 0-8.422 3.771-8.422 8.422s3.771 8.422 8.422 8.422z"/><path d="m212.149 253.268c0-4.652-3.771-8.422-8.422-8.422h-120.907c-4.651 0-8.422 3.771-8.422 8.422s3.771 8.422 8.422 8.422h120.906c4.652 0 8.423-3.771 8.423-8.422z"/><path d="m82.82 404.934h120.906c4.651 0 8.422-3.771 8.422-8.422 0-4.651-3.771-8.422-8.422-8.422h-120.906c-4.651 0-8.422 3.771-8.422 8.422 0 4.652 3.771 8.422 8.422 8.422z"/><path d="m474.774 142.737h-9.49c1.488-15.421-2.016-30.491-9.558-43.282-2.104-3.569-6.703-4.755-10.27-2.652-3.568 2.104-4.756 6.702-2.652 10.27 11.492 19.494 10.393 44.45-3.851 63.142-.078.101-.154.203-.232.304-4.627 5.989-14.444 13.685-21.899 31.854h-46.168c-4.011-9.773-10.067-19.163-17.689-26.997-35.676-36.662-8.126-98.444 43.015-96.476 8.763.336 17.124 2.651 24.85 6.881 3.635 1.989 8.191.655 10.18-2.977 1.989-3.633.656-8.191-2.977-10.18-43.113-23.602-96.863 2.605-105.13 50.972h-61.221c-5.539 0-10.601 2.064-14.47 5.459-3.868-3.394-8.931-5.459-14.469-5.459h-186.657c-7.859 0-14.253 6.394-14.253 14.252v4.888h-12.18c-10.837.001-19.653 8.818-19.653 19.655v143.06 38.181 17.622c0 4.142 3.358 7.5 7.5 7.5s7.5-3.358 7.5-7.5v-1.205c1.02.092.18.066 16.833.066v83.436c0 7.859 6.394 14.252 14.253 14.252h186.658c4.36 0 5.64 3.277 6.969 4.534v23.286c-5.163-3.304-11.234-5.152-17.528-5.152h-202.532c-2.566 0-4.653-2.087-4.653-4.653v-79.564c0-4.142-3.358-7.5-7.5-7.5s-7.5 3.358-7.5 7.5v79.564c0 10.837 8.816 19.653 19.653 19.653h202.532c6.19 0 11.987 3.324 15.127 8.675 4.552 7.76 15.442 7.426 19.801.001 3.141-5.352 8.938-8.676 15.128-8.676h202.532c10.837 0 19.653-8.816 19.653-19.653v-313.427c.001-10.837-8.815-19.654-19.652-19.654zm-101.823 90.304v-15.668h41.575v15.668c0 11.462-9.325 20.788-20.788 20.788s-20.787-9.325-20.787-20.788zm-111.268-94.444h60.232c.412 10.565 3.262 20.988 7.809 29.852h-39.024c-4.651 0-8.422 3.771-8.422 8.422 0 4.652 3.771 8.422 8.422 8.422h51.008c6.241 6.543 10.74 12.89 14.438 21.354h-65.447c-4.651 0-8.422 3.771-8.422 8.423 0 4.651 3.771 8.422 8.422 8.422h67.251v9.55c0 4.135.713 8.106 2.01 11.804h-69.26c-4.651 0-8.422 3.771-8.422 8.422s3.771 8.422 8.422 8.422l81.252-.285c6.039 4.649 13.593 7.424 21.786 7.424 19.733 0 35.788-16.054 35.788-35.788v-21.841c5.584-15.749 14.529-23.88 18.067-27.875v259.478h-185.91c-2.19 0-4.567.349-6.836 1.091-.044.014-.09.024-.133.039v-298.366c-.001-3.844 3.126-6.97 6.969-6.97zm-246.683 23.794c0-2.566 2.087-4.653 4.653-4.653h12.18v131.229h-15.349c-.5 0-.995.022-1.484.066zm1.484 182.724c-.818 0-1.484-.666-1.484-1.484v-38.181c0-.818.666-1.484 1.484-1.484h28.304v41.148c-7.167.001 7.064.001-28.304.001zm141.363 15c1.428 0 2.994-.45 4.278-1.344.013-.009.027-.015.04-.024l33.347-23.483c3.483-2.454 5.563-6.462 5.563-10.723s-2.08-8.269-5.563-10.723l-33.347-23.483c-.014-.01-.03-.017-.044-.026-1.083-.753-2.435-1.257-3.932-1.324-.114-.005-.227-.017-.342-.017-13.127 0-99.343 0-111.014 0v-138.731-11.641h185.911c3.843 0 6.969 3.126 6.969 6.969v298.366c-2.075-.697-4.541-1.13-6.969-1.13h-185.911v-82.688c11.666.002 97.878.002 111.014.002zm-7.5-15h-90.559v-41.148h90.559zm34.34-20.574-19.34 13.62v-27.239zm294.74 151.277c0 2.566-2.087 4.653-4.653 4.653h-202.532c-6.293 0-12.366 1.849-17.528 5.152v-23.286c1.425-1.348 2.557-4.534 6.97-4.534h186.658c7.859 0 14.252-6.394 14.252-14.252v-285.814h12.18c2.566 0 4.653 2.087 4.653 4.653z"/></g></svg>