<svg width="50" height="50" viewBox="0 0 50 50" fill="none" xmlns="http://www.w3.org/2000/svg">
<path d="M37.5 0C34.4621 0.00330869 31.5495 1.21159 29.4014 3.35972C27.2532 5.50786 26.045 8.42041 26.0417 11.4583C26.0417 12.0479 26.1021 12.65 26.2271 13.3313C26.4799 14.9459 27.0821 16.4859 27.9917 17.8437C28.475 18.6833 29.0292 19.5417 29.6229 20.4646C31.9458 24.0708 34.8354 28.5583 36.4792 36.6646C36.527 36.9001 36.6547 37.1118 36.8408 37.2638C37.0268 37.4159 37.2597 37.499 37.5 37.499C37.7403 37.499 37.9732 37.4159 38.1592 37.2638C38.3453 37.1118 38.473 36.9001 38.5208 36.6646C40.1625 28.5583 43.0521 24.0708 45.3771 20.4646C45.9708 19.5417 46.525 18.6833 46.9646 17.9104C47.8932 16.541 48.5091 14.9841 48.7687 13.35C48.8904 12.7267 48.9539 12.0934 48.9583 11.4583C48.9583 5.13958 43.8187 0 37.5 0ZM37.5 8.33333C39.2229 8.33333 40.625 9.73542 40.625 11.4583C40.625 13.1812 39.2229 14.5833 37.5 14.5833C35.7771 14.5833 34.375 13.1812 34.375 11.4583C34.375 9.73542 35.7771 8.33333 37.5 8.33333Z" fill="white"/>
<path d="M46.0979 24.6917C45.8756 24.6326 45.6399 24.6488 45.4277 24.7377C45.2155 24.8267 45.0388 24.9834 44.925 25.1833C43.5104 27.6771 41.7354 31.2813 40.5604 37.0792C40.4775 37.4854 40.3137 37.8709 40.079 38.2126C39.8442 38.5544 39.5432 38.8455 39.1938 39.0688C39.0636 39.1533 38.954 39.2659 38.8729 39.3982C38.7919 39.5306 38.7414 39.6794 38.7252 39.8337C38.7091 39.9881 38.7276 40.1441 38.7795 40.2904C38.8313 40.4366 38.9152 40.5695 39.025 40.6792L44.9417 46.5958C45.0712 46.7254 45.2326 46.8184 45.4096 46.8657C45.5866 46.9129 45.7729 46.9127 45.9498 46.8649C46.1266 46.8172 46.2878 46.7236 46.4169 46.5937C46.5461 46.4638 46.6387 46.3021 46.6854 46.125C46.8146 45.6375 46.875 45.2125 46.875 44.7938V25.7C46.8752 25.4697 46.799 25.2458 46.6584 25.0633C46.5178 24.8809 46.3207 24.7502 46.0979 24.6917Z" fill="white"/>
<path d="M26.1687 27.8208L31.3687 33.0208C31.534 33.1876 31.751 33.2933 31.9841 33.3206C32.2173 33.3478 32.4528 33.295 32.6521 33.1708C32.8517 33.0477 33.0039 32.8607 33.084 32.6403C33.1642 32.4199 33.1676 32.1789 33.0937 31.9562C32.2491 29.3935 31.1279 26.9304 29.75 24.6104C29.6696 24.4728 29.5588 24.3555 29.4259 24.2676C29.293 24.1797 29.1417 24.1235 28.9836 24.1034C28.8255 24.0832 28.665 24.0997 28.5143 24.1515C28.3636 24.2033 28.2268 24.289 28.1146 24.4021L26.1687 26.3479C26.0718 26.4445 25.9949 26.5593 25.9424 26.6857C25.8899 26.812 25.8629 26.9475 25.8629 27.0844C25.8629 27.2212 25.8899 27.3567 25.9424 27.4831C25.9949 27.6095 26.0718 27.7242 26.1687 27.8208Z" fill="white"/>
<path d="M24.6958 29.2937C24.5005 29.0985 24.2356 28.9888 23.9594 28.9888C23.6831 28.9888 23.4182 29.0985 23.2229 29.2937L4.4479 48.0687C4.31837 48.1983 4.22529 48.3597 4.17805 48.5367C4.13081 48.7137 4.13108 48.9 4.17884 49.0768C4.22659 49.2537 4.32014 49.4148 4.45004 49.544C4.57994 49.6731 4.74161 49.7658 4.91874 49.8125C5.40624 49.9396 5.82915 50 6.24999 50H41.6666C42.0875 50 42.5104 49.9396 42.9979 49.8104C43.1754 49.7642 43.3376 49.6719 43.4679 49.5428C43.5982 49.4137 43.692 49.2524 43.7398 49.0753C43.7877 48.8982 43.7878 48.7116 43.7402 48.5345C43.6925 48.3573 43.5989 48.1959 43.4687 48.0667L24.6958 29.2937Z" fill="white"/>
<path d="M10.4167 16.6667C11.5673 16.6667 12.5 15.7339 12.5 14.5833C12.5 13.4327 11.5673 12.5 10.4167 12.5C9.26608 12.5 8.33334 13.4327 8.33334 14.5833C8.33334 15.7339 9.26608 16.6667 10.4167 16.6667Z" fill="white"/>
<path d="M11.7312 20.9417C9.32291 21.2938 8.22916 21.8313 7.7375 22.2208C7.55117 22.3676 7.42051 22.5735 7.36709 22.8046C7.31368 23.0357 7.34072 23.278 7.44375 23.4917C7.66458 23.9458 8.39166 25 10.4167 25C11.7562 25 12.6125 24.8438 13.0375 24.525C13.2258 24.3841 13.3609 24.1837 13.4208 23.9563C13.5021 23.6813 13.5417 23.3396 13.5417 22.9167C13.5417 22.2354 13.0687 21.6979 12.6292 21.2437C12.5135 21.1267 12.3721 21.0384 12.2161 20.9859C12.0602 20.9335 11.8941 20.9183 11.7312 20.9417Z" fill="white"/>
<path d="M27.3583 20.775C26.9729 20.1708 26.5896 19.575 26.2604 19.0083L26.2271 18.9562C25.1701 17.3547 24.4683 15.5454 24.1687 13.65C24.0309 12.9275 23.9605 12.1938 23.9583 11.4583C23.9583 10.1583 24.15 8.85833 24.5292 7.58958C24.5746 7.43415 24.5834 7.27028 24.5548 7.11088C24.5261 6.95148 24.4609 6.80091 24.3641 6.67103C24.2674 6.54116 24.1418 6.43553 23.9973 6.36246C23.8527 6.2894 23.6932 6.2509 23.5312 6.25H6.24999C4.86916 6.25165 3.54536 6.80092 2.56897 7.77731C1.59258 8.75371 1.04331 10.0775 1.04166 11.4583V44.7917C1.04166 45.2125 1.10207 45.6354 1.23124 46.1229C1.27742 46.3004 1.36975 46.4626 1.49886 46.5929C1.62796 46.7232 1.78925 46.817 1.96635 46.8649C2.14344 46.9127 2.33004 46.9128 2.50719 46.8652C2.68434 46.8176 2.84573 46.7239 2.97499 46.5937L27.3271 22.2417C27.6729 21.8958 27.6229 21.1875 27.3583 20.775ZM15.0167 12.3937C14.7977 12.4955 14.621 12.6703 14.5168 12.8881C14.4126 13.1059 14.3875 13.3532 14.4458 13.5875C14.5396 13.9646 14.5833 14.2792 14.5833 14.5833C14.5844 15.1344 14.4752 15.6801 14.2619 16.1882C14.0486 16.6963 13.7357 17.1565 13.3417 17.5417C13.2443 17.6383 13.167 17.7532 13.1141 17.8798C13.0612 18.0064 13.0338 18.1422 13.0334 18.2793C13.033 18.4165 13.0596 18.5524 13.1118 18.6793C13.164 18.8062 13.2407 18.9215 13.3375 19.0187L13.6417 19.3167C14.4792 20.1271 15.625 21.2333 15.625 22.9167C15.625 26.5792 13.1208 27.0833 10.4167 27.0833C6.82291 27.0833 5.20832 24.6479 5.20832 22.9167C5.20832 22.4229 5.20832 20.9208 7.84999 19.8125C8.02191 19.7404 8.17134 19.6235 8.28268 19.474C8.39402 19.3245 8.46319 19.1478 8.48298 18.9625C8.50278 18.7771 8.47246 18.5898 8.3952 18.4201C8.31794 18.2505 8.19657 18.1047 8.04374 17.9979C7.49208 17.6151 7.04096 17.1048 6.72868 16.5103C6.4164 15.9159 6.25219 15.2548 6.24999 14.5833C6.24999 12.2854 8.11874 10.4167 10.4167 10.4167H14.5833C14.7235 10.3542 14.8757 10.3237 15.0291 10.3275C15.1825 10.3312 15.3331 10.369 15.47 10.4382C15.607 10.5074 15.7268 10.6062 15.8207 10.7275C15.9147 10.8487 15.9805 10.9894 16.0134 11.1393C16.0462 11.2891 16.0453 11.4444 16.0106 11.5939C15.976 11.7433 15.9085 11.8832 15.8131 12.0033C15.7176 12.1234 15.5966 12.2208 15.4589 12.2883C15.3211 12.3559 15.1701 12.3919 15.0167 12.3937Z" fill="white"/>
</svg>
