<svg id="icons" enable-background="new 0 0 64 64" height="512" viewBox="0 0 64 64" width="512" xmlns="http://www.w3.org/2000/svg"><path d="m1 58h62c.553 0 1-.447 1-1 0-.074-.026-.139-.042-.208.016-.069.042-.134.042-.208v-3.584c0-.05-.021-.093-.028-.141-.005-.034.007-.068-.002-.102l-4.507-18.025c.933-2.149 1.537-4.188 1.537-5.732 0-6.065-4.935-11-11-11-4.265 0-7.961 2.443-9.786 6h-4.259c-.001 0-.001 0-.002 0h-7.073c1.259-2.603 2.12-5.155 2.12-7 0-6.065-4.935-11-11-11s-11 4.935-11 11c0 1.845.861 4.397 2.12 7h-3.12c-.026 0-.049.013-.074.015-.072.006-.138.021-.205.042-.058.017-.113.033-.167.061-.06.029-.11.068-.163.109-.049.039-.096.076-.137.123s-.071.1-.104.154c-.035.06-.065.119-.088.186-.008.024-.025.043-.032.068l-7 28c-.009.033.003.067-.002.102-.007.047-.028.09-.028.14v4c0 .553.447 1 1 1zm30-4v2h-29v-2zm31 2h-29v-2h29zm-.281-4h-28.671c.484-5.535 5.006-8.086 10.653-11.264l.077-.043c2.298 3.526 4.846 6.307 6.222 6.307 1.771 0 5.479-4.602 8.101-9.475zm-11.719-32c4.963 0 9 4.037 9 9 0 5.054-7.229 15.218-9 15.979-1.771-.761-9-10.925-9-15.979 0-4.963 4.037-9 9-9zm-7.275 18.991-.004.002c-5.746 3.234-11.177 6.305-11.672 13.007h-28.768l.59-2.358c4.494-2.819 8.774-4.092 12.915-5.313 8.372-2.468 15.618-4.614 20.9-18.329h2.74c-.271.955-.426 1.959-.426 3 0 2.556 1.649 6.466 3.725 9.991zm-22.725-30.991c4.963 0 9 4.037 9 9 0 5.054-7.229 15.218-9 15.979-1.771-.761-9-10.925-9-15.979 0-4.963 4.037-9 9-9zm0 27c1.713 0 5.242-4.307 7.843-9h6.698c-4.891 12.153-11.291 14.044-19.32 16.411-3.571 1.053-7.552 2.235-11.67 4.509l5.229-20.92h3.377c2.601 4.693 6.13 9 7.843 9z"/><path d="m20 25.003c.004 0 .008-.003.012-.003 3.303-.006 5.988-2.694 5.988-5.999v-2.002c0-3.309-2.691-6-6-6-.019 0-.037.003-.056.003-.007 0-.013 0-.02.001-3.273.041-5.924 2.713-5.924 5.996v2.002c0 3.304 2.684 5.991 5.984 5.999.006 0 .011.003.016.003zm4-8.004v2.002c0 1.533-.876 2.852-2.146 3.523.39-1.42.33-3.256-1.051-5.12-1.445-1.951-.776-3.615-.324-4.356 1.978.239 3.521 1.909 3.521 3.951zm-8 2.002v-2.002c0-1.533.876-2.852 2.146-3.523-.39 1.419-.33 3.254 1.051 5.118 1.446 1.953.775 3.619.326 4.359-1.98-.24-3.523-1.91-3.523-3.952z"/><path d="m49.984 37c.006 0 .011.003.016.003.004 0 .008-.003.012-.003 3.303-.006 5.988-2.694 5.988-5.999v-2.002c0-3.309-2.691-6-6-6-.019 0-.037.003-.056.003-.007 0-.013 0-.02.001-3.273.04-5.924 2.713-5.924 5.996v2.002c0 3.304 2.684 5.991 5.984 5.999zm4.016-8.001v2.002c0 1.533-.876 2.852-2.146 3.523.39-1.42.33-3.256-1.051-5.12-1.445-1.951-.776-3.615-.324-4.356 1.978.239 3.521 1.909 3.521 3.951zm-5.854-3.523c-.39 1.419-.33 3.254 1.051 5.118 1.446 1.953.775 3.619.326 4.359-1.98-.24-3.523-1.91-3.523-3.952v-2.002c0-1.533.876-2.852 2.146-3.523z"/></svg>