<?xml version="1.0" encoding="iso-8859-1"?>
<!-- Generator: Adobe Illustrator 19.0.0, SVG Export Plug-In . SVG Version: 6.00 Build 0)  -->
<svg version="1.1" id="Capa_1" xmlns="http://www.w3.org/2000/svg" xmlns:xlink="http://www.w3.org/1999/xlink" x="0px" y="0px"
	 viewBox="0 0 478.502 478.502" style="enable-background:new 0 0 478.502 478.502;" xml:space="preserve">
<g>
	<g>
		<path d="M360.301,162.1l-65.8-83.2c-11.2-14.1-27.4-23.4-45.2-26V10c0-5.5-4.5-10-10-10s-10,4.5-10,10v42.9
			c-17.8,2.5-34,11.8-45.1,26l-66,83.3c-5.7,7.3-8.9,16.3-8.9,25.6v249.9c0.1,22.6,18.5,40.9,41.1,40.8c0.1,0,0.1,0,0.2,0h177.3
			c22.6,0.2,41.1-18,41.3-40.6c0-0.1,0-0.1,0-0.2V187.8C369.201,178.5,366.001,169.5,360.301,162.1z M239.301,150.4
			c16.1,0,29.1,13,29.1,29.1s-13,29.1-29.1,29.1c-16.1,0-29.1-13-29.1-29.1C210.201,163.5,223.201,150.4,239.301,150.4z
			 M349.301,437.7c0,11.7-9.6,20.8-21.3,20.8h-177.4c-11.7,0-21.3-9.1-21.3-20.8V187.8c0-4.8,1.6-9.5,4.6-13.2l65.9-83.3
			c7.4-9.3,17.8-15.8,29.5-18.1v58.2c-26.6,5.5-43.6,31.5-38.1,58.1s31.5,43.6,58.1,38.1c26.6-5.5,43.6-31.5,38.1-58.1
			c-4-19.1-18.9-34.1-38.1-38.1V73.2c4.1,0.8,8.1,2.2,11.9,4c6.8,3.3,12.8,8.1,17.5,14.1l66,83.2c3,3.8,4.6,8.5,4.6,13.3V437.7z"/>
	</g>
</g>
<g>
	<g>
		<path d="M271.201,364.7c-4.4-13.9-17.3-23.4-31.9-23.4c-7.4,0-13.4-6-13.4-13.4c0-7.4,6-13.4,13.4-13.4c7.4,0,13.4,6,13.4,13.4
			c0,5.5,4.5,10,10,10s10-4.5,10-10c0-14.6-9.5-27.5-23.4-31.9v-4.4c0-5.5-4.5-10-10-10s-10,4.5-10,10v4.4
			c-17.6,5.5-27.4,24.3-21.9,41.9c4.4,13.9,17.3,23.4,31.9,23.4c7.4,0,13.4,6,13.4,13.4c0,7.4-6,13.4-13.4,13.4
			c-7.4,0-13.4-6-13.4-13.4c0-5.5-4.5-10-10-10s-10,4.5-10,10c0,14.6,9.5,27.5,23.4,31.9v5c0,5.5,4.5,10,10,10s10-4.5,10-10v-5
			C266.901,401.1,276.701,382.3,271.201,364.7z"/>
	</g>
</g>
<g>
</g>
<g>
</g>
<g>
</g>
<g>
</g>
<g>
</g>
<g>
</g>
<g>
</g>
<g>
</g>
<g>
</g>
<g>
</g>
<g>
</g>
<g>
</g>
<g>
</g>
<g>
</g>
<g>
</g>
</svg>
