<svg width="50" height="50" viewBox="0 0 50 50" fill="none" xmlns="http://www.w3.org/2000/svg">
<g clip-path="url(#clip0)">
<path d="M45.8333 8.33407H25.4792L22.9167 0.709071C22.8442 0.493466 22.7031 0.30751 22.515 0.179606C22.3269 0.0517026 22.1022 -0.0111187 21.875 0.000737606H4.16667C3.0616 0.000737606 2.00179 0.439724 1.22039 1.22113C0.438987 2.00253 0 3.06234 0 4.1674L0 37.5007C0 38.6058 0.438987 39.6656 1.22039 40.447C2.00179 41.2284 3.0616 41.6674 4.16667 41.6674H24.2708L27.0833 49.3341C27.1595 49.5315 27.294 49.701 27.4689 49.8201C27.6438 49.9392 27.8509 50.0022 28.0625 50.0007H45.8333C46.9384 50.0007 47.9982 49.5617 48.7796 48.7803C49.561 47.9989 50 46.9391 50 45.8341V12.5007C50 11.3957 49.561 10.3359 48.7796 9.55446C47.9982 8.77306 46.9384 8.33407 45.8333 8.33407ZM15.625 31.2507C14.1138 31.2523 12.6245 30.8885 11.2842 30.1903C9.94391 29.4922 8.79225 28.4803 7.92737 27.241C7.06249 26.0017 6.51002 24.5717 6.31705 23.0728C6.12408 21.574 6.29632 20.0506 6.8191 18.6327C7.34188 17.2147 8.1997 15.9442 9.31946 14.9293C10.4392 13.9144 11.7877 13.1853 13.2501 12.804C14.7125 12.4227 16.2453 12.4006 17.7181 12.7396C19.1908 13.0786 20.5598 13.7685 21.7083 14.7507C21.8123 14.8397 21.8977 14.9482 21.9598 15.0701C22.0218 15.192 22.0592 15.325 22.0698 15.4614C22.0805 15.5978 22.0641 15.7349 22.0218 15.865C21.9794 15.9951 21.9118 16.1155 21.8229 16.2195C21.734 16.3235 21.6255 16.4089 21.5035 16.4709C21.3816 16.5329 21.2487 16.5703 21.1123 16.581C20.9759 16.5916 20.8387 16.5753 20.7087 16.5329C20.5786 16.4906 20.4581 16.423 20.3542 16.3341C19.1116 15.3004 17.5608 14.7088 15.9455 14.6524C14.3301 14.5959 12.7418 15.0778 11.4302 16.0223C10.1185 16.9667 9.15779 18.3202 8.69904 19.8701C8.2403 21.4199 8.30951 23.0783 8.8958 24.5845C9.48209 26.0907 10.5522 27.3595 11.938 28.1914C13.3238 29.0233 14.9468 29.3711 16.5518 29.1803C18.1568 28.9894 19.6529 28.2707 20.805 27.1371C21.9571 26.0034 22.6999 24.5191 22.9167 22.9174H15.625C15.3487 22.9174 15.0838 22.8077 14.8884 22.6123C14.6931 22.417 14.5833 22.152 14.5833 21.8757C14.5833 21.5995 14.6931 21.3345 14.8884 21.1392C15.0838 20.9438 15.3487 20.8341 15.625 20.8341H23.9583C24.2346 20.8341 24.4996 20.9438 24.6949 21.1392C24.8903 21.3345 25 21.5995 25 21.8757C25 24.3621 24.0123 26.7467 22.2541 28.5049C20.496 30.263 18.1114 31.2507 15.625 31.2507ZM40.4167 22.9174C39.5204 25.4041 38.2103 27.7215 36.5417 29.7716C35.6608 28.8509 34.9107 27.8134 34.3125 26.6882C34.2075 26.4313 34.0048 26.2266 33.7489 26.1192C33.493 26.0117 33.2048 26.0103 32.9479 26.1153C32.691 26.2203 32.4863 26.423 32.3788 26.679C32.2714 26.9349 32.27 27.223 32.375 27.4799C33.113 28.9062 34.0533 30.2184 35.1667 31.3757C34.7373 31.8288 34.2853 32.2599 33.8125 32.6674L30.4583 22.9174H40.4167ZM47.9167 45.8341C47.9167 46.3866 47.6972 46.9165 47.3065 47.3072C46.9158 47.6979 46.3859 47.9174 45.8333 47.9174H30.4167L36.1875 41.3132C36.3035 41.1775 36.3818 41.0137 36.4147 40.8383C36.4476 40.6628 36.4339 40.4818 36.375 40.3132L34.4792 34.7716C35.217 34.204 35.9132 33.5844 36.5625 32.9174C38.6458 35.0007 40.5833 36.8966 40.9792 37.2507C41.1836 37.4386 41.4543 37.5376 41.7317 37.5258C42.0091 37.5141 42.2705 37.3927 42.4583 37.1882C42.6462 36.9838 42.7451 36.7131 42.7334 36.4357C42.7217 36.1583 42.6003 35.8969 42.3958 35.7091C41.4167 34.8132 39.625 33.1049 37.9583 31.3341C40.043 28.8944 41.6158 26.0604 42.5833 23.0007H44.7917C45.0679 23.0007 45.3329 22.891 45.5282 22.6956C45.7236 22.5003 45.8333 22.2353 45.8333 21.9591C45.8333 21.6828 45.7236 21.4179 45.5282 21.2225C45.3329 21.0271 45.0679 20.9174 44.7917 20.9174H37.5V19.7924C37.5 19.5161 37.3903 19.2512 37.1949 19.0558C36.9996 18.8605 36.7346 18.7507 36.4583 18.7507C36.1821 18.7507 35.9171 18.8605 35.7218 19.0558C35.5264 19.2512 35.4167 19.5161 35.4167 19.7924V20.8341H30.2083C30.0642 20.8025 29.915 20.8025 29.7708 20.8341L26.1875 10.4174H45.8333C46.3859 10.4174 46.9158 10.6369 47.3065 11.0276C47.6972 11.4183 47.9167 11.9482 47.9167 12.5007V45.8341Z" fill="white"/>
</g>
<defs>
<clipPath id="clip0">
<rect width="50" height="50" fill="white"/>
</clipPath>
</defs>
</svg>
